<?xml version="1.0" encoding="UTF-8"?>
<svg id="Layer_2" data-name="Layer 2" xmlns="http://www.w3.org/2000/svg" viewBox="0 0 113.24 25">
  <defs>
    <style>
      .cls-1 {
        fill: #fff;
      }

      .cls-2 {
        fill: #ed1b33;
      }
    </style>
  </defs>
  <g id="Layer_1-2" data-name="Layer 1">
    <path class="cls-2" d="M36.86,0h18.38l-9.46,4.86,.49-2.07c.12-.5-.04-.88-.75-1.03l-8.67-1.77Z"/>
    <path class="cls-1" d="M20.89,19.85c.07-.13,.12-.22,.17-.33,0,0,.01-.01,.03-.01,0,0,.02,.01,.01,.02l-1.04,4.42c-.15,.65,.19,.9,.5,.9h10.13c8.58,0,11.94-4.09,12.23-8.99,.16-2.75-1.58-4.54-6.51-4.54h-3.78c-1.35,0-2.73-.44-2.73-1.54s1.47-2.02,3.5-2.02h9.24s.96-3.9,.96-3.9c.21-.85-.06-1.1-.68-1.1h-11.39c-6.61,0-9.59,4.4-9.59,7.56s2.47,5.56,9.06,5.6h1.37c1.45,.01,2.28,.21,2.3,1.18,.01,.53-.35,1.16-.74,1.46-.88,.68-1.67,.75-5.82,.75H7.59L11.55,2.76H4.7c-.46,0-.64,.13-.77,.68L.17,18.95c-.7,2.88,.75,5.91,4.44,5.91H14.02c2.38,0,5.58-2.6,6.87-5.01h0Z"/>
    <path class="cls-1" d="M62.99,8.29l-4.03,12.33h-.05l-3.95-12.33h-5.24V24.81h3.18V11.03h.05l4.58,13.78h2.5l4.8-13.78h.05v13.78h3.18V8.29h-5.07Zm9.05,1.82l3.4-.9v3.41h2.83v2.16h-2.83v6.32c0,1.3,.55,1.68,1.54,1.68,.6,0,1.04-.14,1.29-.26v2.08c-.52,.21-1.26,.4-2.28,.4-2.52,0-3.95-1-3.95-3.55v-6.68h-2.25v-2.16h2.25v-2.51h0Zm7.68,4.52c0-.76-.03-1.47-.11-2.01h3.07c.03,.73,.11,1.49,.11,2.23h.05c.41-.95,1.48-2.42,3.59-2.42,.22,0,.38,.05,.58,.07v2.74c-.3-.07-.6-.12-.96-.12-1.4,0-2.93,.73-2.93,3.01v6.68h-3.4V14.63Zm14.3,8.29h-.01c-2.18,0-2.7-2.18-2.7-4.21s.52-4.18,2.7-4.19h.01c2.19,0,2.69,2.15,2.69,4.19s-.49,4.21-2.69,4.21Zm0-10.49h-.01c-2.88,0-6.21,1.31-6.21,6.27s3.33,6.29,6.21,6.3h.01c2.88,0,6.2-1.18,6.2-6.3s-3.32-6.27-6.2-6.27Zm8.06,2.2c0-.76-.03-1.47-.11-2.01h3.18c.03,.62,.11,1.25,.11,1.87h.05c.49-.73,1.45-2.06,3.76-2.06,3.21,0,4.17,2.06,4.17,4.52v7.86h-3.4v-7.32c0-1.87-.55-2.65-1.95-2.65-1.78,0-2.42,1.3-2.42,2.86v7.1h-3.4V14.63h0Z"/>
  </g>
</svg>