<svg width="86" height="28" viewBox="0 0 86 28" fill="none" xmlns="http://www.w3.org/2000/svg">
<path d="M0 10.4347H6.77133L10.7613 19.0055L14.9483 10.4347H21.6207L12.7885 27.2151H8.70053L0 10.4347ZM21.4583 4.08893C21.4583 1.8312 23.2904 0 25.5799 0C27.8367 0 29.6361 1.8312 29.6361 4.08893C29.6361 6.34667 27.8367 8.21053 25.5799 8.21053C24.4871 8.20955 23.4393 7.77499 22.6665 7.00225C21.8938 6.22952 21.4593 5.18175 21.4583 4.08893ZM22.3739 27.2151V10.4347H28.6543V27.2151H22.3739ZM31.9583 5.20147H38.0427V10.4347H41.6407V15.2432H38.0427V27.2151H31.8929V15.2759H30.0935V10.4347H31.9256L31.9583 5.20147ZM43.2096 10.4347H49.49L49.392 12.7895C49.392 12.7895 51.0272 10.0091 54.9855 10.0091C55.2141 10.0091 55.4437 10.0091 55.6724 10.0417V15.7341C55.1833 15.5055 54.5272 15.3739 53.8412 15.3739C51.8131 15.3739 49.392 16.3548 49.392 18.4165V27.2151H43.2096V10.4347ZM64.1452 9.8784C66.2713 9.8784 68.3321 10.7296 69.8049 12.2015V10.4347H75.4628V27.2151H69.7069C69.7069 27.2151 69.6733 26.6924 69.6733 26.1361C69.6733 25.8757 69.6733 25.6125 69.7069 25.3839C68.3321 27.0844 66.2713 27.902 64.1452 27.902C58.8467 27.902 55.706 23.2568 55.706 18.8412C55.706 14.8503 58.2904 11.0563 62.4111 10.0753C62.9799 9.94498 63.5616 9.87892 64.1452 9.8784ZM70 18.9065C70 16.6507 68.1688 14.8503 65.9111 14.8503C63.6543 14.8503 61.7568 16.6497 61.7568 18.9065C61.7568 21.1633 63.6543 23.0617 65.9111 23.0617C68.1688 23.0608 70 21.1633 70 18.9065ZM77.5889 23.9447C77.5889 21.6225 79.3875 19.7904 81.7105 19.7904C83.9673 19.7904 85.7995 21.6225 85.7995 23.9447C85.7995 26.1688 83.9673 28.0009 81.7105 28.0009C79.3875 28 77.5889 26.1688 77.5889 23.9447Z" fill="black"/>
</svg>
