<svg width="48" height="48" viewBox="0 0 48 48" fill="none" xmlns="http://www.w3.org/2000/svg">
<g clip-path="url(#clip0_2137_37810)">
<path d="M21.75 8.25C21.75 7.00736 22.7574 6 24 6C25.2426 6 26.25 7.00736 26.25 8.25V11.25C26.25 12.4926 25.2426 13.5 24 13.5C22.7574 13.5 21.75 12.4926 21.75 11.25V8.25Z" stroke="white" stroke-width="3" stroke-linejoin="round"/>
<path d="M18 21.75C18 18.4363 20.6863 15.75 24 15.75V15.75C27.3137 15.75 30 18.4363 30 21.75V30.75H18V21.75Z" stroke="white" stroke-width="3" stroke-linejoin="round"/>
<path d="M18.75 30.75H29.25L27 45.75H21L18.75 30.75Z" stroke="white" stroke-width="3" stroke-linejoin="round"/>
<path d="M12 8.625C12 11.3174 14.625 13.5 14.625 13.5C14.625 13.5 17.25 11.3174 17.25 8.625C17.25 5.93261 14.625 3.75 14.625 3.75C14.625 3.75 12 5.93261 12 8.625Z" stroke="white" stroke-width="3" stroke-linejoin="round"/>
<path d="M5.01587 18.0969C6.36206 20.4286 9.72668 21.0062 9.72668 21.0062C9.72668 21.0062 10.9087 17.8036 9.5625 15.4719C8.21631 13.1402 4.85168 12.5625 4.85168 12.5625C4.85168 12.5625 3.66967 15.7652 5.01587 18.0969Z" stroke="white" stroke-width="3" stroke-linejoin="round"/>
<path d="M4.22187 30.2341C6.55355 31.5803 9.75625 30.3983 9.75625 30.3983C9.75625 30.3983 9.17855 27.0337 6.84687 25.6875C4.5152 24.3413 1.3125 25.5233 1.3125 25.5233C1.3125 25.5233 1.8902 28.8879 4.22187 30.2341Z" stroke="white" stroke-width="3" stroke-linejoin="round"/>
<path d="M10.9626 41.6323C13.6141 41.1648 15.3077 38.2006 15.3077 38.2006C15.3077 38.2006 12.7024 35.9945 10.0509 36.4621C7.39945 36.9296 5.70583 39.8937 5.70583 39.8937C5.70583 39.8937 8.31111 42.0998 10.9626 41.6323Z" stroke="white" stroke-width="3" stroke-linejoin="round"/>
<path d="M14.9989 13.125C11.6239 16.125 8.99887 20.4827 8.99887 25.4995C8.99887 29.5948 10.5619 33.325 13.1239 36.1262C13.8068 36.8729 14.5608 37.5535 15.375 38.1575" stroke="white" stroke-width="3" stroke-linecap="round"/>
<path d="M36 8.625C36 11.3174 33.375 13.5 33.375 13.5C33.375 13.5 30.75 11.3174 30.75 8.625C30.75 5.93261 33.375 3.75 33.375 3.75C33.375 3.75 36 5.93261 36 8.625Z" stroke="white" stroke-width="3" stroke-linejoin="round"/>
<path d="M42.9841 18.0969C41.6379 20.4286 38.2733 21.0062 38.2733 21.0062C38.2733 21.0062 37.0913 17.8036 38.4375 15.4719C39.7837 13.1402 43.1483 12.5625 43.1483 12.5625C43.1483 12.5625 44.3303 15.7652 42.9841 18.0969Z" stroke="white" stroke-width="3" stroke-linejoin="round"/>
<path d="M43.7781 30.2341C41.4464 31.5803 38.2438 30.3983 38.2438 30.3983C38.2438 30.3983 38.8214 27.0337 41.1531 25.6875C43.4848 24.3413 46.6875 25.5233 46.6875 25.5233C46.6875 25.5233 46.1098 28.8879 43.7781 30.2341Z" stroke="white" stroke-width="3" stroke-linejoin="round"/>
<path d="M37.0374 41.6323C34.3859 41.1648 32.6923 38.2006 32.6923 38.2006C32.6923 38.2006 35.2976 35.9945 37.9491 36.4621C40.6005 36.9296 42.2942 39.8937 42.2942 39.8937C42.2942 39.8937 39.6889 42.0998 37.0374 41.6323Z" stroke="white" stroke-width="3" stroke-linejoin="round"/>
<path d="M33.0011 13.125C36.3761 16.125 39.0011 20.4827 39.0011 25.4995C39.0011 29.5948 37.4381 33.325 34.8761 36.1262C34.1932 36.8729 33.4392 37.5535 32.625 38.1575" stroke="white" stroke-width="3" stroke-linecap="round"/>
</g>
<defs>
<clipPath id="clip0_2137_37810">
<rect width="48" height="48" fill="white"/>
</clipPath>
</defs>
</svg>
