<?xml version="1.0" encoding="UTF-8"?>
<svg id="Layer_2" data-name="Layer 2" xmlns="http://www.w3.org/2000/svg" viewBox="0 0 16 16">
  <g id="Layer_1-2" data-name="Layer 1">
    <path d="M2,4c1.1,0,2-.9,2-2S3.1,0,2,0,0,.9,0,2s.9,2,2,2Zm6,12c1.1,0,2-.9,2-2s-.9-2-2-2-2,.9-2,2,.9,2,2,2Zm-6,0c1.1,0,2-.9,2-2s-.9-2-2-2-2,.9-2,2,.9,2,2,2Zm0-6c1.1,0,2-.9,2-2s-.9-2-2-2-2,.9-2,2,.9,2,2,2Zm6,0c1.1,0,2-.9,2-2s-.9-2-2-2-2,.9-2,2,.9,2,2,2ZM12,2c0,1.1,.9,2,2,2s2-.9,2-2-.9-2-2-2-2,.9-2,2Zm-4,2c1.1,0,2-.9,2-2s-.9-2-2-2-2,.9-2,2,.9,2,2,2Zm6,6c1.1,0,2-.9,2-2s-.9-2-2-2-2,.9-2,2,.9,2,2,2Zm0,6c1.1,0,2-.9,2-2s-.9-2-2-2-2,.9-2,2,.9,2,2,2Z"/>
  </g>
</svg>