<svg width="1920" height="1080" viewBox="0 0 1920 1080" fill="none" xmlns="http://www.w3.org/2000/svg">
<g clip-path="url(#clip0_4_9)">
<path fill-rule="evenodd" clip-rule="evenodd" d="M1920 0H0V1080H1920V0ZM1054.55 506.283C1055.35 509.684 1056.1 513.078 1056.79 516.465C1061.49 502.512 1067.29 488.509 1074.21 474.635C1129.4 364.105 1235.27 303.649 1310.69 339.582C1386.11 375.515 1402.52 494.237 1347.34 604.767C1292.15 715.297 1186.28 775.754 1110.86 739.821C1080.89 725.541 1060.23 698.187 1049.69 663.469C1032.66 711.978 1000.39 747.176 957.613 756.812C875.729 775.266 786.333 693.037 757.976 573.116C756.709 567.763 755.575 562.379 754.577 556.969C751.479 565.917 747.805 574.655 743.578 583.128C706.846 656.884 636.367 697.241 586.146 673.26C535.926 649.279 525.009 570.028 561.741 496.271C598.473 422.515 668.953 382.159 719.173 406.14C735.215 413.8 747.247 427.1 754.996 444.059C768.319 381.278 804.244 334.002 854.912 322.587C936.796 304.134 1026.19 386.363 1054.55 506.283Z" fill="white"/>
</g>
<defs>
<clipPath id="clip0_4_9">
<rect width="1920" height="1080" fill="white"/>
</clipPath>
</defs>
</svg>
