<?xml version="1.0" encoding="UTF-8"?>
<svg id="Layer_2" data-name="Layer 2" xmlns="http://www.w3.org/2000/svg" viewBox="0 0 17.49 17.49">
  <defs>
    <style>
      .cls-1 {
        fill: #989ea5;
      }
    </style>
  </defs>
  <g id="Layer_1-2" data-name="Layer 1">
    <path class="cls-1" d="M12.5,11h-.79l-.28-.27c1.01-1.18,1.57-2.68,1.57-4.23C13,2.91,10.09,0,6.5,0S0,2.91,0,6.5s2.91,6.5,6.5,6.5c1.61,0,3.09-.59,4.23-1.57l.27,.28v.79l5,4.99,1.49-1.49-4.99-5Zm-6,0c-2.49,0-4.5-2.01-4.5-4.5S4.01,2,6.5,2s4.5,2.01,4.5,4.5-2.01,4.5-4.5,4.5Z"/>
  </g>
</svg>